<?xml version="1.0" encoding="UTF-8"?>
<svg id="Layer_1" data-name="Layer 1" xmlns="http://www.w3.org/2000/svg" viewBox="0 0 937.99 847.15">
  <defs>
    <style>
      .cls-1 {
        fill: #0e2c48;
      }

      .cls-1, .cls-2 {
        stroke-width: 0px;
      }

      .cls-2 {
        fill: #cba557;
      }
    </style>
  </defs>
  <path class="cls-2" d="M365.24,263.2c-.11-35.89-.22-71.79-.33-107.68-10.32-.05-20.65-.1-30.97-.14-.18,35.8-.36,71.59-.54,107.39,4.09-.9,9.37-1.67,15.54-1.62,6.54.05,12.08,1.01,16.3,2.06Z"/>
  <path class="cls-2" d="M398.38,277.65c3.42,1.95,7.6,4.76,11.86,8.71,4.82,4.47,8.19,8.97,10.48,12.55,25.43-25.34,50.86-50.68,76.29-76.02-7.23-7.37-14.46-14.74-21.69-22.1-25.65,25.62-51.3,51.24-76.95,76.86Z"/>
  <path class="cls-2" d="M542.18,329.21c-36.25.16-72.51.32-108.76.48,1.05,3.97,2.05,9.14,2.3,15.22.28,6.87-.49,12.71-1.38,17.06,35.9-.11,71.8-.23,107.7-.34.05-10.81.1-21.61.15-32.42Z"/>
  <path class="cls-2" d="M410.23,406.73c-4.69,5.03-9.39,8.58-13.11,11,25.3,25.46,50.61,50.93,75.91,76.39,7.72-7.56,15.45-15.12,23.17-22.68-25.59-25.68-51.17-51.37-76.76-77.05-2.09,3.54-5.06,7.88-9.21,12.33Z"/>
  <path class="cls-2" d="M286.87,286.07c4.26-3.95,8.44-6.76,11.86-8.71-25.65-25.62-51.3-51.24-76.95-76.86-7.23,7.37-14.46,14.74-21.69,22.1,25.43,25.34,50.86,50.68,76.29,76.02,2.29-3.58,5.67-8.08,10.48-12.55Z"/>
  <path class="cls-2" d="M155.07,361.33c35.9.11,71.8.23,107.7.34-.89-4.35-1.66-10.19-1.38-17.06.25-6.08,1.24-11.25,2.3-15.22-36.25-.16-72.51-.32-108.76-.48.05,10.81.1,21.61.15,32.42Z"/>
  <path class="cls-2" d="M299.99,417.43c-3.72-2.42-8.42-5.98-13.11-11-4.16-4.45-7.13-8.79-9.21-12.33-25.59,25.68-51.17,51.37-76.76,77.05,7.72,7.56,15.45,15.12,23.17,22.68,25.3-25.46,50.61-50.93,75.91-76.39Z"/>
  <path class="cls-2" d="M424.32,347.92c0-41.85-33.92-75.77-75.77-75.77s-75.77,33.92-75.77,75.77,33.92,75.77,75.77,75.77,75.77-33.92,75.77-75.77ZM310.24,347.92c0-21.13,17.19-38.32,38.32-38.32s38.32,17.19,38.32,38.32-17.19,38.32-38.32,38.32-38.32-17.19-38.32-38.32Z"/>
  <path class="cls-2" d="M697.01,339.8c-2.2-6.23-6.83-9.46-9.56-11.3-6.72-4.54-13.5-5.1-18.33-5.43-9.05-.63-15.99,1.27-29.63,5-6.76,1.85-10.92,3.07-13.84,4.13-1.56.56-3.19.92-4.74,1.5-1.86.69-2.61,1.1-3.52.83-1.4-.41-1.98-2.05-2.53-3.35-.35-.83-3.26-7.67-6.74-9.27-1.5-.69-4.02-.84-8.48,1.96.55,9.5.62,16.96.58,22.17-.03,3.74.34,7.49.14,11.23-.34,6.59-1.31,10.8,1.14,12.86,1.3,1.09,2.97,1.06,3.28,1.05,2.81-.05,4.82-2.55,6.74-4.93,2.04-2.53,3.69-5.36,3.69-5.36.89-1.52.96-1.86,1.52-2.25,1.63-1.12,3.84-.23,7.82,1.01,2.28.71,4.63,1.16,6.88,1.96,8.03,2.83,16.89,5.06,18.69,5.51,7.67,1.89,12.9,3.17,19.92,2.54,3.17-.29,9.29-.91,15.79-4.78,3.65-2.17,8.79-5.23,11.16-11.59,2.32-6.23.57-11.85,0-13.47Z"/>
  <path class="cls-2" d="M143.44,529.85c-2.11,1.1-4.1,2.45-6.25,3.48-7.68,3.67-15.53,8.35-17.12,9.3-6.76,4.09-11.37,6.87-15.89,12.28-2.04,2.44-5.93,7.2-7.8,14.54-1.05,4.12-2.53,9.91.29,16.08,2.76,6.05,7.96,8.79,9.52,9.54,5.95,2.85,11.52,1.87,14.75,1.24,7.97-1.53,13.15-5.93,16.81-9.1,6.85-5.95,10.42-12.19,17.44-24.47,3.48-6.08,5.56-9.89,6.88-12.7.7-1.5,1.6-2.91,2.3-4.41.83-1.81,1.07-2.62,1.91-3.08,1.28-.69,2.85.05,4.15.58.83.34,7.73,3.12,11.32,1.8,1.55-.57,3.44-2.25,4.62-7.37-7.1-6.34-12.42-11.57-16.07-15.28-2.62-2.67-5.53-5.06-8.03-7.85-4.42-4.91-6.7-8.58-9.88-8.3-1.69.15-2.85,1.34-3.07,1.57-1.95,2.02-1.61,5.21-1.29,8.25.34,3.23,1.17,6.4,1.17,6.4.45,1.71.63,1.99.51,2.66-.36,1.94-2.55,2.87-6.25,4.81Z"/>
  <path class="cls-2" d="M77.27,357.92c1.86-.69,2.61-1.1,3.52-.83,1.4.41,1.98,2.05,2.53,3.35.35.83,3.26,7.67,6.74,9.27,1.5.69,4.02.84,8.48-1.96-.55-9.5-.62-16.96-.58-22.17.03-3.74-.34-7.49-.14-11.23.34-6.59,1.31-10.8-1.14-12.86-1.3-1.09-2.97-1.06-3.28-1.05-2.81.05-4.82,2.55-6.74,4.93-2.04,2.53-3.69,5.36-3.69,5.36-.89,1.52-.96,1.86-1.52,2.25-1.63,1.12-3.84.23-7.82-1.01-2.28-.71-4.63-1.16-6.88-1.96-8.03-2.83-16.89-5.06-18.69-5.51-7.67-1.89-12.9-3.17-19.92-2.54-3.17.29-9.29.91-15.79,4.78-3.65,2.17-8.79,5.23-11.16,11.59-2.32,6.23-.57,11.85,0,13.47,2.2,6.23,6.83,9.46,9.56,11.3,6.72,4.54,13.5,5.1,18.33,5.43,9.05.63,15.99-1.27,29.63-5,6.76-1.85,10.92-3.07,13.84-4.13,1.56-.56,3.19-.92,4.74-1.5Z"/>
  <path class="cls-2" d="M104.88,138.25c5.93,6.87,12.17,10.45,24.43,17.5,6.08,3.49,9.87,5.58,12.68,6.91,1.5.71,2.9,1.61,4.41,2.31,1.8.83,2.62,1.08,3.07,1.91.69,1.28-.06,2.85-.59,4.15-.34.83-3.14,7.72-1.83,11.31.56,1.55,2.24,3.45,7.36,4.63,6.36-7.08,11.6-12.4,15.32-16.03,2.68-2.62,5.08-5.52,7.86-8.02,4.92-4.41,8.59-6.68,8.32-9.87-.14-1.69-1.34-2.85-1.57-3.07-2.02-1.96-5.2-1.62-8.24-1.31-3.23.34-6.41,1.16-6.41,1.16-1.71.44-1.99.63-2.67.5-1.94-.36-2.87-2.56-4.79-6.27-1.1-2.12-2.44-4.11-3.46-6.26-3.65-7.69-8.31-15.55-9.27-17.14-4.07-6.77-6.85-11.38-12.24-15.92-2.44-2.05-7.19-5.95-14.52-7.83-4.12-1.06-9.9-2.55-16.08.25-6.06,2.75-8.81,7.94-9.56,9.5-2.87,5.95-1.89,11.51-1.28,14.75,1.52,7.97,5.9,13.17,9.06,16.83Z"/>
  <path class="cls-2" d="M536.78,178.75c4.5,4.83,6.84,8.46,10.02,8.13,1.69-.18,2.82-1.39,3.04-1.62,1.92-2.06,1.52-5.23,1.15-8.27-.4-3.23-1.28-6.38-1.28-6.38-.47-1.7-.67-1.98-.55-2.66.33-1.95,2.51-2.92,6.17-4.91,2.09-1.14,4.06-2.52,6.19-3.58,7.62-3.79,15.39-8.61,16.96-9.59,6.7-4.2,11.25-7.06,15.68-12.54,2-2.48,5.81-7.3,7.56-14.67.98-4.14,2.36-9.95-.56-16.08-2.86-6-8.11-8.66-9.68-9.38-6-2.75-11.55-1.68-14.77-1-7.94,1.67-13.05,6.14-16.66,9.38-6.75,6.06-10.22,12.36-17.03,24.75-3.38,6.14-5.39,9.98-6.66,12.81-.68,1.51-1.56,2.93-2.22,4.45-.8,1.82-1.03,2.64-1.86,3.11-1.27.72-2.85,0-4.16-.51-.84-.32-7.78-2.99-11.35-1.62-1.54.59-3.4,2.3-4.49,7.45,7.2,6.22,12.61,11.36,16.32,15.01,2.67,2.63,5.61,4.97,8.16,7.71Z"/>
  <path class="cls-2" d="M348.26,97.95c3.74.03,7.49-.34,11.23-.14,6.59.34,10.8,1.31,12.86-1.14,1.09-1.3,1.06-2.97,1.05-3.28-.05-2.81-2.55-4.82-4.93-6.74-2.53-2.04-5.36-3.69-5.36-3.69-1.52-.89-1.86-.96-2.25-1.52-1.12-1.63-.23-3.84,1.01-7.82.71-2.28,1.16-4.63,1.96-6.88,2.83-8.03,5.06-16.89,5.51-18.69,1.89-7.67,3.17-12.9,2.54-19.92-.29-3.17-.91-9.29-4.78-15.79-2.17-3.65-5.23-8.79-11.59-11.16-6.23-2.32-11.85-.57-13.47,0-6.22,2.2-9.46,6.83-11.3,9.56-4.54,6.72-5.1,13.5-5.43,18.33-.63,9.05,1.27,15.99,5,29.63,1.85,6.76,3.07,10.92,4.13,13.84.56,1.56.92,3.19,1.5,4.74.69,1.86,1.1,2.61.83,3.52-.41,1.4-2.05,1.98-3.35,2.53-.83.35-7.67,3.26-9.27,6.74-.69,1.5-.84,4.02,1.96,8.48,9.5-.55,16.96-.62,22.17-.58Z"/>
  <path class="cls-2" d="M587.65,561.88c-5.55-7.18-11.57-11.1-23.43-18.81-5.87-3.82-9.55-6.11-12.28-7.59-1.46-.79-2.81-1.77-4.27-2.54-1.75-.93-2.56-1.22-2.96-2.08-.62-1.32.22-2.84.82-4.11.38-.81,3.56-7.53,2.45-11.2-.48-1.58-2.05-3.56-7.09-5.03-6.74,6.72-12.26,11.74-16.18,15.17-2.82,2.47-5.37,5.23-8.29,7.57-5.15,4.13-8.95,6.2-8.85,9.39.05,1.7,1.18,2.92,1.4,3.15,1.91,2.07,5.11,1.91,8.16,1.76,3.25-.16,6.46-.8,6.46-.8,1.73-.35,2.03-.52,2.69-.36,1.92.47,2.72,2.71,4.44,6.52.98,2.17,2.21,4.23,3.11,6.44,3.22,7.88,7.44,15.99,8.31,17.62,3.69,6.99,6.21,11.74,11.35,16.57,2.32,2.18,6.85,6.33,14.07,8.62,4.05,1.29,9.75,3.09,16.07.63,6.2-2.41,9.23-7.45,10.07-8.96,3.19-5.78,2.52-11.39,2.09-14.66-1.08-8.04-5.16-13.47-8.12-17.3Z"/>
  <path class="cls-2" d="M240.93,746.19c24.47-5.96,67.08-16.34,97.07-52.84,13.99-17.02,21.1-34.71,22.87-39.27,5.65-14.59,7.25-25.89,9.58-42.35,3.18-22.41,3.18-39.45,3.19-60.27,0-14.2-.49-16.43-.99-24.69-.48-7.93-.6-13.08-.75-22.83-.28-18.69-.59-22.15-.75-27.5-.03-5.45-.06-10.9-.09-16.36.05-6.53.12-11.71-.09-15.56-.02-4.45-.05-8.91-.07-13.36-4.91,1.05-11.3,2.05-18.82,2.3-8.5.28-15.72-.49-21.1-1.38,0,.69,0,1.37,0,2.06-2.09,3.76-.06,43.44-6.03,99.94-6.63,62.76-16.81,86.29-20.86,95.04-7.17,15.47-17.7,37.54-41.15,57.37-5.7,4.82-28.11,22.99-62.01,30.71-17.3,3.94-31.38,3.75-51,3.48-12.01-.16-26.29-.43-44.62-4.06-18.49-3.66-33.42-9.21-44.04-13.91l31.87,21.44c14.22,9.15,40.84,23.57,77.08,27.82,31.03,3.64,54.67-1.89,70.7-5.8Z"/>
  <path class="cls-1" d="M565.6,710.55c-7.25-3.22-20.46-8.4-47.23-12.6-17.05-2.68-25.87-4.06-38.83-3.91-19.15.22-33.48,3.62-43.46,6.08-6.69,1.65-23.39,6.08-49.4,18.11-23,10.63-23.59,13.47-56.21,31-28.52,15.33-43.17,23.1-62.59,28.4-5.79,1.58-21.68,5.64-42.59,7.24-14.87,1.14-26.03.56-33.61.14-9.96-.55-15.49-.89-23.04-2.9-5.53-1.47-10.5-3.4-10.72-2.9-.29.69,8.6,5.1,9.42,5.51,14.57,7.2,27.3,11,33.61,12.75,7.35,2.03,19.46,5.32,35.64,6.95,15.74,1.59,38.85,1.97,65.2-4.35,18.83-4.51,32.81-10.89,42.16-15.21,10.24-4.73,14.9-7.7,27.82-14.78,0,0,24.47-12.75,48.68-24.77,30.68-15.25,50.39-23.68,77.8-28.25,7.62-1.27,22.27-1.96,51.58-3.33,3.15-.15,9.42-.41,17.39,1.01,3.51.62,6.3,1.39,7.97,1.88l-1.16-2.03c-1.98-1.03-4.86-2.48-8.4-4.06Z"/>
  <path class="cls-2" d="M469.48,792.62c-10.08-.65-15.11-.98-18.62-1.01-3.27-.03-15.68-.02-30.86,3.26-13.76,2.97-23.48,7.25-37.09,13.26-12.37,5.46-12.26,6.36-23.11,10.87-6.96,2.89-17.06,7.04-30.42,10.29-18.39,4.46-33.5,4.91-45.93,5.22-6.49.16-11.92.06-15.79-.07l-12.82-1.88c1.65,1.02,4.06,2.4,7.1,3.77,1.99.9,4.53,1.92,10.5,3.69,1.74.52,8.07,2.4,13.69,3.62,21.02,4.56,40.2,3.41,40.2,3.41,20.53-1.23,35.67-6.82,42.63-9.45,12.43-4.7,23.78-10.9,28-13.22,8.57-4.71,11.87-7.19,21.3-11.81,1.74-.85,9.37-4.55,19.99-8.55,12.86-4.83,20.23-7.6,30.71-8.91,6.09-.76,11.67-.83,11.66-1.3,0-.3-2.27-.58-11.16-1.16Z"/>
  <path class="cls-2" d="M515.62,515.54c12.29-11.98,72.14-72.93,72.15-169.22.01-84.11-45.64-140.5-60.85-157.63-11.4-12.84-74.78-81.46-178.2-81.42-99.16.04-161.14,63.18-173.85,76.79-14.04,15.02-61.14,69.32-64.68,153.03-.85,20.17-.67,77.46,35.7,135.28,53.41,84.91,143.02,104.43,159.95,107.79,2.03-12.27,4.06-24.53,6.08-36.8-10.38-2.08-24.53-5.75-40.44-12.55-33.91-14.49-55.52-34.55-64.11-43.14-37.76-37.76-58.55-87.95-58.55-141.35s20.79-103.59,58.55-141.35c37.76-37.76,87.95-58.55,141.35-58.55s103.59,20.79,141.35,58.55c37.76,37.76,58.55,87.95,58.55,141.35s-20.79,103.59-58.55,141.35c-26.95,26.95-54.47,39.16-63.79,43-16.42,6.76-31.03,10.07-41.63,11.82.19,12.75.39,25.5.58,38.25,21.98-3.57,79.9-15.98,130.39-65.2Z"/>
</svg>