<?xml version="1.0" encoding="UTF-8"?>
<svg id="Layer_1" data-name="Layer 1" xmlns="http://www.w3.org/2000/svg" viewBox="0 0 787.93 351.05">
  <defs>
    <style>
      .cls-1 {
        fill: #0e2c48;
      }

      .cls-1, .cls-2 {
        stroke-width: 0px;
      }

      .cls-2 {
        fill: #cba557;
      }
    </style>
  </defs>
  <g>
    <path class="cls-2" d="M305.96,306.81c-2.84-1.1-3.34-1.82-3.34-2.93,0-.92.73-2,2.77-2,1.49,0,2.63.45,3.33.83l1.04.57,1.36-4.02-.72-.41c-.73-.42-2.35-1.11-4.92-1.11-4.33,0-7.48,2.71-7.48,6.44,0,3.03,1.95,5.2,5.93,6.61,2.63,1.01,3.13,1.85,3.13,3.05,0,1.51-1.19,2.42-3.19,2.42-1.39,0-2.93-.43-4.11-1.16l-1.11-.68-1.24,4.12.62.41c1.28.85,3.61,1.45,5.67,1.45,5.54,0,8.01-3.4,8.01-6.77,0-4.05-2.91-5.72-5.75-6.82Z"/>
    <polygon class="cls-2" points="330.66 306.44 322.98 306.44 322.98 298.06 318.39 298.06 318.39 320.09 322.98 320.09 322.98 310.7 330.66 310.7 330.66 320.09 335.28 320.09 335.28 298.06 330.66 298.06 330.66 306.44"/>
    <rect class="cls-2" x="342.91" y="298.06" width="4.58" height="22.03"/>
    <path class="cls-2" d="M367.4,299.84c-1.42-1.27-3.53-1.92-6.29-1.92-1.81,0-3.54.13-5.13.4l-.84.14v21.64h4.59v-7.88c3.31.22,6.23-.67,7.92-2.47,1.21-1.25,1.83-2.92,1.83-4.98s-.75-3.78-2.08-4.93ZM364.9,304.89c0,2.71-2.19,3.28-4.02,3.28-.44,0-.81-.02-1.14-.05v-6.09c.37-.04.85-.06,1.44-.06,2.47,0,3.73.98,3.73,2.92Z"/>
    <path class="cls-2" d="M388.35,299.84c-1.42-1.27-3.53-1.92-6.29-1.92-1.81,0-3.54.13-5.13.4l-.84.14v21.64h4.58v-7.88c3.31.22,6.22-.67,7.92-2.47,1.21-1.25,1.83-2.92,1.83-4.98s-.75-3.78-2.08-4.93ZM385.85,304.89c0,2.71-2.19,3.28-4.02,3.28-.44,0-.81-.02-1.14-.05v-6.09c.37-.04.85-.06,1.44-.06,2.47,0,3.73.98,3.73,2.92Z"/>
    <rect class="cls-2" x="397.05" y="298.06" width="4.58" height="22.03"/>
    <path class="cls-2" d="M421.9,307.44c0,1.33.01,2.58.04,3.8-.48-.84-1-1.7-1.56-2.58l-6.71-10.6h-4.38v22.03h4.44v-9.56c0-1.53-.01-2.86-.04-4.09.54.93,1.14,1.93,1.82,3.01l6.65,10.63h4.17v-22.03h-4.44v9.38Z"/>
    <path class="cls-2" d="M442.64,311.65h4.07v4.27c-.54.13-1.36.24-2.45.24-4.21,0-6.73-2.65-6.73-7.08s2.64-7.05,7.05-7.05c2.02,0,3.21.42,4.02.78l1.04.46,1.19-4.02-.77-.37c-1.02-.49-2.99-1.02-5.43-1.02-7.05,0-11.81,4.56-11.85,11.34,0,3.3,1.13,6.28,3.1,8.18,2.06,1.97,4.74,2.92,8.18,2.92,2.7,0,5.02-.63,6.49-1.16l.66-.24v-11.33h-8.6v4.08Z"/>
    <polygon class="cls-2" points="474.36 298.06 469.77 298.06 469.77 320.09 482.92 320.09 482.92 315.93 474.36 315.93 474.36 298.06"/>
    <rect class="cls-2" x="488.94" y="298.06" width="4.59" height="22.03"/>
    <path class="cls-2" d="M513.78,307.44c0,1.33.01,2.57.04,3.8-.48-.84-1-1.7-1.56-2.58l-6.71-10.6h-4.37v22.03h4.44v-9.56c0-1.53-.01-2.86-.04-4.09.54.93,1.14,1.93,1.82,3.01l6.65,10.63h4.17v-22.03h-4.44v9.38Z"/>
    <polygon class="cls-2" points="530.46 310.7 538.25 310.7 538.25 306.56 530.46 306.56 530.46 302.23 538.7 302.23 538.7 298.06 525.88 298.06 525.88 320.09 539.14 320.09 539.14 315.93 530.46 315.93 530.46 310.7"/>
    <path class="cls-2" d="M553,306.81c-2.84-1.1-3.34-1.82-3.34-2.93,0-.92.73-2,2.77-2,1.49,0,2.63.45,3.33.83l1.04.57,1.36-4.02-.72-.41c-.73-.42-2.35-1.11-4.92-1.11-4.33,0-7.48,2.71-7.48,6.44,0,3.03,1.95,5.2,5.93,6.61,2.63,1.01,3.13,1.85,3.13,3.05,0,1.51-1.19,2.42-3.19,2.42-1.39,0-2.93-.43-4.11-1.16l-1.11-.68-1.24,4.12.62.41c1.28.85,3.61,1.45,5.67,1.45,5.54,0,8.01-3.4,8.01-6.77,0-4.05-2.91-5.72-5.75-6.82Z"/>
    <path class="cls-2" d="M589.12,299.84c-1.42-1.27-3.53-1.92-6.29-1.92-1.81,0-3.54.13-5.13.4l-.84.14v21.64h4.58v-7.88c3.31.22,6.23-.67,7.92-2.47,1.21-1.25,1.83-2.92,1.83-4.98s-.75-3.78-2.08-4.93ZM586.62,304.89c0,2.71-2.19,3.28-4.02,3.28-.44,0-.81-.02-1.14-.05v-6.09c.37-.04.85-.06,1.44-.06,2.47,0,3.73.98,3.73,2.92Z"/>
    <path class="cls-2" d="M606.14,308.64c-.44,1.28-.91,2.67-1.34,4.07-.37-1.27-.78-2.61-1.25-4.08l-3.34-10.57h-4.9l7.19,22.03h4.28l7.88-22.03h-4.9l-3.62,10.57Z"/>
    <polygon class="cls-2" points="618.24 302.26 624.33 302.26 624.33 320.09 628.95 320.09 628.95 302.26 635.07 302.26 635.07 298.06 618.24 298.06 618.24 302.26"/>
    <polygon class="cls-2" points="656.47 298.06 651.88 298.06 651.88 320.09 665.02 320.09 665.02 315.93 656.47 315.93 656.47 298.06"/>
    <polygon class="cls-2" points="666.14 302.26 672.24 302.26 672.24 320.09 676.85 320.09 676.85 302.26 682.97 302.26 682.97 298.06 666.14 298.06 666.14 302.26"/>
    <path class="cls-2" d="M703.63,300.68c-1.99-1.86-4.87-2.76-8.79-2.76-1.87,0-3.77.14-5.65.43l-.85.13v21.46l.89.1c1.43.16,3.05.25,4.81.25,4.18,0,7.48-1.1,9.56-3.17,2.08-2.05,3.18-4.99,3.18-8.5s-1.06-6.02-3.14-7.92ZM702.07,308.69c0,4.91-2.6,7.5-7.53,7.5-.47,0-1.07,0-1.62-.04v-14.07c.51-.06,1.18-.11,2.03-.11,2.41,0,4.23.61,5.43,1.82,1.13,1.13,1.69,2.78,1.68,4.91Z"/>
  </g>
  <g>
    <path class="cls-2" d="M151.35,109.07c-.05-14.87-.09-29.75-.14-44.62l-12.83-.06c-.08,14.83-.15,29.67-.23,44.5,1.69-.37,3.88-.69,6.44-.67,2.71.02,5.01.42,6.75.85Z"/>
    <path class="cls-2" d="M165.08,115.05c1.42.81,3.15,1.97,4.92,3.61,2,1.85,3.4,3.72,4.34,5.2,10.54-10.5,21.08-21,31.61-31.5-3-3.05-5.99-6.11-8.99-9.16-10.63,10.62-21.26,21.23-31.89,31.85Z"/>
    <path class="cls-2" d="M224.67,136.42c-15.02.07-30.05.13-45.07.2.44,1.65.85,3.79.95,6.31.12,2.85-.2,5.27-.57,7.07,14.88-.05,29.75-.09,44.63-.14.02-4.48.04-8.96.06-13.43Z"/>
    <path class="cls-2" d="M169.99,168.54c-1.95,2.08-3.89,3.56-5.43,4.56,10.49,10.55,20.97,21.1,31.46,31.66,3.2-3.13,6.4-6.26,9.6-9.4l-31.81-31.93c-.86,1.47-2.1,3.26-3.82,5.11Z"/>
    <path class="cls-2" d="M118.87,118.54c1.77-1.64,3.5-2.8,4.92-3.61-10.63-10.62-21.26-21.23-31.89-31.85-3,3.05-5.99,6.11-8.99,9.16,10.54,10.5,21.08,21,31.61,31.5.95-1.48,2.35-3.35,4.34-5.2Z"/>
    <path class="cls-2" d="M64.26,149.73c14.88.05,29.75.09,44.63.14-.37-1.8-.69-4.22-.57-7.07.1-2.52.52-4.66.95-6.31-15.02-.07-30.05-.13-45.07-.2.02,4.48.04,8.96.06,13.43Z"/>
    <path class="cls-2" d="M124.31,172.98c-1.54-1-3.49-2.48-5.43-4.56-1.72-1.84-2.95-3.64-3.82-5.11-10.6,10.64-21.21,21.29-31.81,31.93,3.2,3.13,6.4,6.26,9.6,9.4,10.49-10.55,20.97-21.1,31.46-31.66Z"/>
    <path class="cls-2" d="M175.83,144.17c0-17.34-14.06-31.4-31.4-31.4s-31.4,14.06-31.4,31.4,14.06,31.4,31.4,31.4,31.4-14.06,31.4-31.4ZM128.56,144.17c0-8.76,7.12-15.88,15.88-15.88s15.88,7.12,15.88,15.88-7.12,15.88-15.88,15.88-15.88-7.12-15.88-15.88Z"/>
    <path class="cls-2" d="M288.83,140.81c-.91-2.58-2.83-3.92-3.96-4.68-2.79-1.88-5.59-2.11-7.59-2.25-3.75-.26-6.63.52-12.28,2.07-2.8.77-4.52,1.27-5.73,1.71-.65.23-1.32.38-1.96.62-.77.29-1.08.46-1.46.34-.58-.17-.82-.85-1.05-1.39-.15-.34-1.35-3.18-2.79-3.84-.62-.29-1.67-.35-3.51.81.23,3.94.26,7.03.24,9.19-.01,1.55.14,3.1.06,4.65-.14,2.73-.54,4.48.47,5.33.54.45,1.23.44,1.36.44,1.17-.02,2-1.06,2.79-2.04.85-1.05,1.53-2.22,1.53-2.22.37-.63.4-.77.63-.93.67-.46,1.59-.1,3.24.42.94.29,1.92.48,2.85.81,3.33,1.17,7,2.1,7.74,2.28,3.18.78,5.35,1.31,8.25,1.05,1.32-.12,3.85-.38,6.54-1.98,1.51-.9,3.64-2.17,4.62-4.8.96-2.58.24-4.91,0-5.58Z"/>
    <path class="cls-2" d="M59.44,219.56c-.88.46-1.7,1.02-2.59,1.44-3.18,1.52-6.44,3.46-7.09,3.86-2.8,1.69-4.71,2.85-6.59,5.09-.85,1.01-2.46,2.99-3.23,6.02-.44,1.71-1.05,4.11.12,6.67,1.14,2.51,3.3,3.64,3.94,3.95,2.47,1.18,4.77.77,6.11.52,3.3-.64,5.45-2.46,6.97-3.77,2.84-2.46,4.32-5.05,7.23-10.14,1.44-2.52,2.3-4.1,2.85-5.26.29-.62.66-1.2.95-1.83.34-.75.44-1.09.79-1.27.53-.29,1.18.02,1.72.24.35.14,3.2,1.29,4.69.75.64-.24,1.43-.93,1.91-3.05-2.94-2.63-5.15-4.79-6.66-6.33-1.09-1.11-2.29-2.1-3.33-3.25-1.83-2.03-2.78-3.55-4.1-3.44-.7.06-1.18.56-1.27.65-.81.84-.67,2.16-.53,3.42.14,1.34.49,2.65.49,2.65.18.71.26.83.21,1.1-.15.81-1.06,1.19-2.59,1.99Z"/>
    <path class="cls-2" d="M32.02,148.32c.77-.29,1.08-.46,1.46-.34.58.17.82.85,1.05,1.39.15.34,1.35,3.18,2.79,3.84.62.29,1.67.35,3.51-.81-.23-3.94-.26-7.03-.24-9.19.01-1.55-.14-3.1-.06-4.65.14-2.73.54-4.48-.47-5.33-.54-.45-1.23-.44-1.36-.44-1.17.02-2,1.06-2.79,2.04-.85,1.05-1.53,2.22-1.53,2.22-.37.63-.4.77-.63.93-.67.46-1.59.1-3.24-.42-.94-.29-1.92-.48-2.85-.81-3.33-1.17-7-2.1-7.74-2.28-3.18-.78-5.35-1.31-8.25-1.05-1.32.12-3.85.38-6.54,1.98-1.51.9-3.64,2.17-4.62,4.8-.96,2.58-.24,4.91,0,5.58.91,2.58,2.83,3.92,3.96,4.68,2.79,1.88,5.59,2.11,7.59,2.25,3.75.26,6.63-.52,12.28-2.07,2.8-.77,4.52-1.27,5.73-1.71.65-.23,1.32-.38,1.96-.62Z"/>
    <path class="cls-2" d="M43.46,57.29c2.46,2.85,5.04,4.33,10.12,7.25,2.52,1.45,4.09,2.31,5.25,2.86.62.29,1.2.67,1.83.96.75.34,1.09.45,1.27.79.29.53-.02,1.18-.24,1.72-.14.34-1.3,3.2-.76,4.69.23.64.93,1.43,3.05,1.92,2.63-2.94,4.81-5.14,6.35-6.64,1.11-1.08,2.1-2.29,3.26-3.32,2.04-1.83,3.56-2.77,3.45-4.09-.06-.7-.55-1.18-.65-1.27-.84-.81-2.16-.67-3.42-.54-1.34.14-2.65.48-2.65.48-.71.18-.83.26-1.1.21-.81-.15-1.19-1.06-1.99-2.6-.46-.88-1.01-1.7-1.43-2.59-1.51-3.19-3.44-6.44-3.84-7.1-1.69-2.81-2.84-4.72-5.07-6.6-1.01-.85-2.98-2.46-6.02-3.25-1.71-.44-4.1-1.06-6.67.11-2.51,1.14-3.65,3.29-3.96,3.93-1.19,2.46-.78,4.77-.53,6.11.63,3.3,2.44,5.46,3.76,6.97Z"/>
    <path class="cls-2" d="M222.43,74.07c1.86,2,2.84,3.51,4.15,3.37.7-.07,1.17-.58,1.26-.67.8-.85.63-2.17.48-3.43-.16-1.34-.53-2.65-.53-2.65-.2-.7-.28-.82-.23-1.1.14-.81,1.04-1.21,2.56-2.04.87-.47,1.68-1.04,2.57-1.48,3.16-1.57,6.38-3.57,7.03-3.97,2.77-1.74,4.66-2.93,6.5-5.2.83-1.03,2.41-3.03,3.13-6.08.41-1.71.98-4.12-.23-6.66-1.19-2.49-3.36-3.59-4.01-3.89-2.49-1.14-4.78-.69-6.12-.41-3.29.69-5.41,2.55-6.9,3.89-2.8,2.51-4.23,5.12-7.06,10.26-1.4,2.54-2.23,4.14-2.76,5.31-.28.63-.64,1.21-.92,1.84-.33.75-.43,1.09-.77,1.29-.53.3-1.18,0-1.72-.21-.35-.13-3.22-1.24-4.7-.67-.64.25-1.41.96-1.86,3.09,2.98,2.58,5.23,4.71,6.76,6.22,1.11,1.09,2.33,2.06,3.38,3.2Z"/>
    <path class="cls-2" d="M144.31,40.59c1.55.01,3.1-.14,4.65-.06,2.73.14,4.48.54,5.33-.47.45-.54.44-1.23.44-1.36-.02-1.17-1.06-2-2.04-2.79-1.05-.85-2.22-1.53-2.22-1.53-.63-.37-.77-.4-.93-.63-.46-.67-.1-1.59.42-3.24.29-.94.48-1.92.81-2.85,1.17-3.33,2.1-7,2.28-7.74.78-3.18,1.31-5.35,1.05-8.25-.12-1.32-.38-3.85-1.98-6.54-.9-1.51-2.17-3.64-4.8-4.62-2.58-.96-4.91-.24-5.58,0-2.58.91-3.92,2.83-4.68,3.96-1.88,2.79-2.11,5.59-2.25,7.59-.26,3.75.52,6.63,2.07,12.28.77,2.8,1.27,4.52,1.71,5.73.23.65.38,1.32.62,1.96.29.77.46,1.08.34,1.46-.17.58-.85.82-1.39,1.05-.34.15-3.18,1.35-3.84,2.79-.29.62-.35,1.67.81,3.51,3.94-.23,7.03-.26,9.19-.24Z"/>
    <path class="cls-2" d="M243.52,232.84c-2.3-2.98-4.8-4.6-9.71-7.8-2.43-1.58-3.96-2.53-5.09-3.15-.6-.33-1.16-.73-1.77-1.05-.73-.39-1.06-.5-1.23-.86-.26-.55.09-1.18.34-1.7.16-.34,1.48-3.12,1.02-4.64-.2-.65-.85-1.48-2.94-2.09-2.79,2.79-5.08,4.87-6.7,6.28-1.17,1.02-2.23,2.17-3.44,3.14-2.13,1.71-3.71,2.57-3.67,3.89.02.7.49,1.21.58,1.31.79.86,2.12.79,3.38.73,1.35-.07,2.68-.33,2.68-.33.72-.14.84-.21,1.11-.15.8.2,1.13,1.12,1.84,2.7.41.9.92,1.75,1.29,2.67,1.33,3.26,3.09,6.62,3.44,7.3,1.53,2.9,2.57,4.87,4.7,6.87.96.9,2.84,2.62,5.83,3.57,1.68.53,4.04,1.28,6.66.26,2.57-1,3.83-3.09,4.17-3.71,1.32-2.4,1.05-4.72.86-6.07-.45-3.33-2.14-5.58-3.37-7.17Z"/>
    <path class="cls-2" d="M99.84,309.21c10.14-2.47,27.8-6.77,40.23-21.89,5.8-7.05,8.74-14.38,9.48-16.27,2.34-6.04,3-10.73,3.97-17.55,1.32-9.29,1.32-16.35,1.32-24.97,0-5.89-.2-6.81-.41-10.23-.2-3.28-.25-5.42-.31-9.46-.11-7.75-.24-9.18-.31-11.39-.01-2.26-.02-4.52-.04-6.78.02-2.71.05-4.85-.04-6.45-.01-1.85-.02-3.69-.03-5.54-2.04.44-4.68.85-7.8.95-3.52.12-6.51-.2-8.74-.57,0,.28,0,.57,0,.85-.87,1.56-.02,18-2.5,41.41-2.75,26.01-6.96,35.76-8.65,39.38-2.97,6.41-7.33,15.56-17.05,23.77-2.36,2-11.65,9.53-25.7,12.73-7.17,1.63-13,1.55-21.13,1.44-4.98-.07-10.89-.18-18.49-1.68-7.66-1.52-13.85-3.82-18.25-5.76l13.21,8.89c5.89,3.79,16.92,9.77,31.94,11.53,12.86,1.51,22.65-.78,29.3-2.4Z"/>
    <path class="cls-1" d="M234.38,294.44c-3-1.34-8.48-3.48-19.57-5.22-7.07-1.11-10.72-1.68-16.09-1.62-7.93.09-13.87,1.5-18.01,2.52-2.77.68-9.69,2.52-20.47,7.5-9.53,4.41-9.78,5.58-23.29,12.85-11.82,6.35-17.89,9.57-25.94,11.77-2.4.66-8.98,2.34-17.65,3-6.16.47-10.79.23-13.93.06-4.13-.23-6.42-.37-9.55-1.2-2.29-.61-4.35-1.41-4.44-1.2-.12.29,3.56,2.11,3.9,2.28,6.04,2.98,11.31,4.56,13.93,5.28,3.05.84,8.06,2.2,14.77,2.88,6.52.66,16.1.82,27.02-1.8,7.8-1.87,13.6-4.51,17.47-6.3,4.24-1.96,6.17-3.19,11.53-6.12,0,0,10.14-5.28,20.17-10.27,12.71-6.32,20.88-9.81,32.24-11.71,3.16-.53,9.23-.81,21.37-1.38,1.31-.06,3.9-.17,7.2.42,1.45.26,2.61.57,3.3.78l-.48-.84c-.82-.43-2.01-1.03-3.48-1.68Z"/>
    <path class="cls-2" d="M194.55,328.45c-4.18-.27-6.26-.41-7.71-.42-1.35-.01-6.5,0-12.79,1.35-5.7,1.23-9.73,3.01-15.37,5.49-5.13,2.26-5.08,2.63-9.58,4.5-2.88,1.2-7.07,2.92-12.61,4.26-7.62,1.85-13.88,2.04-19.03,2.16-2.69.07-4.94.02-6.54-.03l-5.31-.78c.68.42,1.68.99,2.94,1.56.82.37,1.88.8,4.35,1.53.72.21,3.34.99,5.67,1.5,8.71,1.89,16.66,1.41,16.66,1.41,8.51-.51,14.78-2.83,17.66-3.92,5.15-1.95,9.85-4.52,11.6-5.48,3.55-1.95,4.92-2.98,8.83-4.89.72-.35,3.88-1.89,8.28-3.54,5.33-2,8.38-3.15,12.73-3.69,2.52-.31,4.83-.34,4.83-.54,0-.13-.94-.24-4.62-.48Z"/>
    <path class="cls-2" d="M213.67,213.63c5.09-4.96,29.89-30.22,29.9-70.12,0-34.86-18.91-58.22-25.21-65.32-4.72-5.32-30.99-33.76-73.84-33.74-41.09.02-66.77,26.18-72.04,31.82-5.82,6.23-25.34,28.72-26.8,63.41-.35,8.36-.28,32.1,14.79,56.06,22.13,35.19,59.27,43.28,66.28,44.67.84-5.08,1.68-10.17,2.52-15.25-4.3-.86-10.16-2.38-16.76-5.2-14.05-6.01-23.01-14.32-26.57-17.87-15.65-15.65-24.26-36.45-24.26-58.57s8.62-42.93,24.26-58.57c15.65-15.65,36.45-24.26,58.57-24.26s42.93,8.62,58.57,24.26c15.65,15.65,24.26,36.45,24.26,58.57s-8.62,42.93-24.26,58.57c-11.17,11.17-22.57,16.23-26.43,17.82-6.8,2.8-12.86,4.17-17.25,4.9.08,5.28.16,10.57.24,15.85,9.11-1.48,33.11-6.62,54.03-27.02Z"/>
  </g>
  <g>
    <path class="cls-1" d="M300.44,183.58c-6.01,0-10.56-.11-13.55-.32l-2.14-.15v6.21l1.89.11c2.99.17,4.44.5,5.13.75.63.23,1,.61,1.24,1.28.25.7.54,2.18.54,5.31v59.75c0,8.17-1.11,13.98-3.3,17.25-2.06,3.08-5.22,4.64-9.64,4.76l-1.94.06v6.01h2c6.52,0,12.05-1.79,16.41-5.33,4.35-3.52,7.26-8.2,8.67-13.9.82-3.37,1.35-7.54,1.58-12.39.22-4.75.33-10.28.33-16.44v-39.76c0-3.13.29-4.61.54-5.31.24-.67.61-1.05,1.24-1.29.69-.25,2.14-.58,5.13-.75l1.89-.11v-6.2l-2.13.14c-3.35.21-8.02.32-13.89.32Z"/>
    <path class="cls-1" d="M387.48,252.32l-27-69.61h-4.48l-26.02,67.11c-1.84,4.76-4.26,7.53-7.18,8.23l-1.53.37v5.96l2.2-.22c2.09-.21,4.77-.32,7.95-.32,4.15,0,8.32.11,12.39.32l2.11.11v-6.24l-1.96-.04c-3.48-.08-5.22-.75-6.07-1.31-.61-.4-1.43-1.16-1.43-3.21,0-1.23.36-3.65,2.04-8.19l3.96-10.24h23.53l6.16,16.56c.96,2.4,1.16,3.7,1.16,4.36,0,.82-.27,1.01-.62,1.17-.66.3-2.1.69-5.2.86l-1.9.1v6.22l2.14-.15c2.98-.21,7.61-.32,13.76-.32,4.78,0,8.64.11,11.47.32l2.15.16v-6.24l-1.91-.08c-.89-.04-3.58-.16-5.72-5.68ZM344.84,228.88l9.46-24.82,9.3,24.82h-18.76Z"/>
    <path class="cls-1" d="M445.04,224.49c-2.71-2.19-6.41-4.74-11.01-7.58l-3.15-1.96c-3.55-2.2-6.32-4.03-8.23-5.45-1.75-1.29-3.2-2.86-4.33-4.67-1.07-1.72-1.6-3.71-1.6-6.11,0-3.15,1.01-5.65,3.08-7.62,2.09-2,4.77-2.98,8.18-2.98,4.95,0,8.59,1.7,11.15,5.21,2.7,3.69,4.27,8.33,4.67,13.8l.14,1.85h6.36v-2c0-10.48.18-17.88.54-21.99l.19-2.17h-6.44l-.23,1.74c-.24,1.82-.52,2.65-.67,3-.35-.09-1.07-.35-2.32-1.14-2.07-1.38-4.12-2.45-6.11-3.2h0c-2.09-.78-4.79-1.16-8.25-1.16-6.24,0-11.57,1.78-15.83,5.29-4.38,3.61-6.59,8.82-6.59,15.5,0,4.18.93,7.9,2.77,11.05,1.79,3.08,4.14,5.74,6.97,7.91,2.68,2.06,6.23,4.44,10.56,7.08,5.69,3.44,9.88,6.55,12.47,9.24,2.37,2.46,3.52,5.38,3.52,8.93,0,4.22-1.13,7.26-3.45,9.31-2.4,2.11-5.23,3.14-8.67,3.14-5.8,0-9.95-1.95-12.69-5.97-2.9-4.25-4.61-9.91-5.09-16.83l-.13-1.86h-6.36v2c0,13.27-.14,21.99-.43,25.93l-.15,2.14h6.4l.23-1.74c.24-1.82.51-2.64.67-3,.35.09,1.09.36,2.39,1.19,2.15,1.31,4.42,2.36,6.77,3.12,2.4.79,5.48,1.19,9.15,1.19,7.11,0,13.09-1.96,17.78-5.83,4.81-3.97,7.25-9.62,7.25-16.81,0-4.03-.89-7.62-2.66-10.67-1.71-2.95-4-5.6-6.83-7.89Z"/>
    <path class="cls-1" d="M527.51,252.32l-27-69.61h-4.48l-26.03,67.11c-1.84,4.76-4.26,7.53-7.18,8.23l-1.53.37v5.96l2.2-.22c2.09-.21,4.77-.32,7.95-.32,4.15,0,8.32.11,12.39.32l2.11.11v-6.24l-1.96-.04c-3.48-.08-5.22-.75-6.07-1.31-.61-.4-1.43-1.16-1.43-3.21,0-1.23.36-3.65,2.04-8.19l3.96-10.24h23.53l6.16,16.56c.96,2.4,1.16,3.7,1.16,4.36,0,.82-.27,1.01-.62,1.17-.66.3-2.1.69-5.2.86l-1.9.1v6.22l2.14-.15c2.98-.21,7.61-.32,13.76-.32,4.78,0,8.65.11,11.48.32l2.15.16v-6.24l-1.91-.08c-.89-.04-3.58-.16-5.72-5.68ZM484.87,228.88l9.46-24.82,9.3,24.82h-18.76Z"/>
    <path class="cls-1" d="M599.23,248.26c0-3.62.11-6.55.32-8.71l.21-2.19h-6.52l-.17,1.81c-.49,5.15-1.25,9.1-2.27,11.75-.92,2.39-2.31,4.05-4.24,5.1-2.05,1.1-5.18,1.66-9.32,1.66h-7.93c-2.96,0-4.39-.27-5.07-.5-.6-.2-.96-.56-1.19-1.21-.25-.7-.54-2.18-.54-5.31v-53.88c0-3.13.29-4.61.54-5.31.24-.67.61-1.05,1.24-1.29.69-.25,2.14-.58,5.13-.75l1.89-.11v-6.2l-2.13.14c-3.35.21-7.95.32-13.67.32-6.15,0-10.78-.11-13.76-.32l-2.14-.15v6.21l1.89.11c2.99.17,4.44.5,5.13.75.63.23,1.01.61,1.24,1.28.25.7.54,2.18.54,5.31v53.88c0,3.13-.29,4.61-.54,5.31-.24.67-.61,1.05-1.24,1.28-.69.25-2.14.59-5.13.75l-1.89.1v6.13l2.06-.06c7.03-.22,17.61-.33,31.44-.33,11.58,0,19.92.11,24.79.32l2.3.1-.23-2.3c-.5-5.05-.75-9.66-.75-13.71Z"/>
    <path class="cls-1" d="M626.13,183.58c-6.15,0-10.78-.11-13.76-.32l-2.14-.15v6.21l1.89.11c2.99.17,4.44.5,5.13.75.63.23,1.01.61,1.24,1.28.25.7.54,2.18.54,5.31v53.88c0,3.13-.29,4.61-.54,5.31-.24.67-.61,1.05-1.24,1.28-.69.25-2.14.59-5.13.75l-1.89.1v6.21l2.14-.15c2.98-.21,7.61-.32,13.76-.32,5.8,0,10.4.11,13.67.32l2.13.14v-6.2l-1.89-.1c-2.99-.17-4.44-.5-5.13-.75-.63-.23-1.01-.61-1.24-1.29-.25-.7-.54-2.18-.54-5.31v-53.88c0-3.13.29-4.61.54-5.31.24-.67.61-1.05,1.24-1.28.69-.25,2.14-.58,5.13-.75l1.89-.11v-6.2l-2.13.14c-3.35.21-7.95.32-13.67.32Z"/>
    <path class="cls-1" d="M717.1,188.99v-5.94l-2.2.22c-2.1.21-4.77.32-7.95.32-4.15,0-8.31-.11-12.39-.32l-2.1-.11v6.24l1.96.04c3.55.08,5.36.68,6.26,1.17.67.36,1.35.96,1.35,2.59,0,2.06-.91,4.9-2.72,8.44l-12.15,24.11-16.22-31.16c-.57-1.14-.87-2.15-.87-2.91,0-1.76,3.05-2.13,5.6-2.13h2v-6.42l-2.14.15c-3.05.21-8.12.32-15.07.32-3.48,0-6.65-.11-9.41-.32l-2.15-.17v6.44h2c.56,0,1.17.42,1.58.77.54.46,1.49,1.58,2.96,4.26l21.81,40.29v15.79c0,3.13-.29,4.61-.54,5.31-.24.67-.61,1.05-1.24,1.28-.69.25-2.14.59-5.13.75l-1.89.1v6.21l2.14-.15c2.98-.21,7.61-.32,13.76-.32,5.8,0,10.4.11,13.67.32l2.13.14v-6.2l-1.89-.1c-2.99-.17-4.44-.5-5.13-.75-.63-.23-1.01-.61-1.24-1.28-.25-.7-.54-2.18-.54-5.31v-19.29l16.84-33.35c1.5-2.93,2.89-5.11,4.14-6.45,1.1-1.19,2.2-1.92,3.25-2.19l1.51-.38Z"/>
    <path class="cls-1" d="M786.01,258c-.89-.04-3.58-.16-5.72-5.68l-27-69.61h-4.48l-26.03,67.11c-1.84,4.76-4.26,7.53-7.18,8.23l-1.53.37v5.96l2.2-.22c2.09-.21,4.77-.32,7.95-.32,4.15,0,8.32.11,12.39.32l2.11.11v-6.24l-1.96-.04c-3.48-.08-5.22-.75-6.07-1.31-.61-.4-1.43-1.16-1.43-3.21,0-1.23.36-3.65,2.04-8.19l3.96-10.24h23.53l6.16,16.56c.96,2.4,1.16,3.7,1.16,4.36,0,.82-.27,1.01-.62,1.17-.66.3-2.1.69-5.2.86l-1.9.1v6.22l2.14-.15c2.98-.21,7.61-.32,13.76-.32,4.78,0,8.64.11,11.47.32l2.15.16v-6.24l-1.91-.08ZM737.66,228.88l9.46-24.82,9.3,24.82h-18.76Z"/>
  </g>
</svg>